<svg width="38" height="43" viewBox="0 0 38 43" fill="none" xmlns="http://www.w3.org/2000/svg">
<rect x="38" y="2.9111" width="40.0889" height="38" rx="5" transform="rotate(90 38 2.9111)" fill="url(#paint0_linear_121_597)"/>
<rect x="5.95911" y="27" width="16.8841" height="3" rx="1.5" fill="#C3C5CA"/>
<rect x="5.95911" y="33" width="8.93864" height="3" rx="1.5" fill="#C3C5CA"/>
<g filter="url(#filter0_bi_121_597)">
<path d="M19 2C19 0.895431 19.8954 0 21 0H29C30.1046 0 31 0.895431 31 2V15.4225C31 17.1674 28.9216 18.0755 27.6412 16.89L26.3588 15.7026C25.592 14.9926 24.408 14.9926 23.6412 15.7026L22.3588 16.89C21.0784 18.0755 19 17.1674 19 15.4225V2Z" fill="#90949E"/>
</g>
<defs>
<filter id="filter0_bi_121_597" x="15" y="-4" width="20" height="25.4264" filterUnits="userSpaceOnUse" color-interpolation-filters="sRGB">
<feFlood flood-opacity="0" result="BackgroundImageFix"/>
<feGaussianBlur in="BackgroundImageFix" stdDeviation="2"/>
<feComposite in2="SourceAlpha" operator="in" result="effect1_backgroundBlur_121_597"/>
<feBlend mode="normal" in="SourceGraphic" in2="effect1_backgroundBlur_121_597" result="shape"/>
<feColorMatrix in="SourceAlpha" type="matrix" values="0 0 0 0 0 0 0 0 0 0 0 0 0 0 0 0 0 0 127 0" result="hardAlpha"/>
<feOffset dx="0.2" dy="0.1"/>
<feGaussianBlur stdDeviation="0.5"/>
<feComposite in2="hardAlpha" operator="arithmetic" k2="-1" k3="1"/>
<feColorMatrix type="matrix" values="0 0 0 0 1 0 0 0 0 1 0 0 0 0 1 0 0 0 0.3 0"/>
<feBlend mode="normal" in2="shape" result="effect2_innerShadow_121_597"/>
</filter>
<linearGradient id="paint0_linear_121_597" x1="38.0889" y1="21.9111" x2="78.0889" y2="21.9111" gradientUnits="userSpaceOnUse">
<stop stop-color="#595D69"/>
<stop offset="1" stop-color="#606571"/>
</linearGradient>
</defs>
</svg>
