<svg width="166" height="36" viewBox="0 0 166 36" fill="none" xmlns="http://www.w3.org/2000/svg">
<path d="M14.4232 13.0599C17.1507 18.8415 21.568 29.1752 18.112 31.4708C14.6559 33.7664 5.85883 26.6012 2.48607 21.5235C-0.886689 16.4458 -0.819198 10.4685 2.63682 8.17289C6.09283 5.87729 11.9702 7.86025 14.4232 13.0599Z" fill="url(#paint0_linear_7289_7681)"/>
<path d="M24.3327 15.0808C24.1809 21.878 20.8133 31.885 16.6651 31.965C12.5169 32.045 8.94529 21.2759 8.82778 15.1812C8.71027 9.08655 11.9778 4.08101 16.126 4.00103C20.2741 3.92105 24.4791 8.52273 24.3327 15.0808Z" fill="url(#paint1_linear_7289_7681)"/>
<path d="M31.2045 21.9776C27.0057 26.3967 18.7436 33.9242 15.3438 31.5461C11.9441 29.168 15.3989 18.3608 18.8928 13.3657C22.3868 8.37065 27.9753 6.24915 31.3751 8.62725C34.7748 11.0054 36.0571 16.8705 31.2045 21.9776Z" fill="url(#paint2_linear_7289_7681)"/>
<path d="M48.504 23.202C49.89 23.202 50.808 22.554 51.114 22.266L53.598 25.938C53.022 26.406 51.132 27.432 48.45 27.432C43.374 27.432 39.954 24.372 39.954 19.602C39.954 14.814 43.374 11.79 48.45 11.79C51.078 11.79 53.022 12.816 53.598 13.32L51.078 16.992C50.826 16.758 49.944 16.02 48.504 16.02C46.704 16.02 45.102 17.514 45.102 19.602C45.102 21.69 46.704 23.202 48.504 23.202ZM61.9061 27.432C57.0821 27.432 53.5901 24.174 53.5901 19.656C53.5901 15.138 57.0821 11.79 61.9061 11.79C66.7481 11.79 70.1321 15.138 70.1321 19.656C70.1321 24.174 66.7481 27.432 61.9061 27.432ZM61.9061 22.986C63.8141 22.986 65.0381 21.618 65.0381 19.638C65.0381 17.658 63.8141 16.236 61.9061 16.236C59.9981 16.236 58.7561 17.658 58.7561 19.638C58.7561 21.618 59.9981 22.986 61.9061 22.986ZM88.4246 27H83.0786V24.588C82.3766 25.938 80.2886 27.432 77.8766 27.432C73.5926 27.432 70.8206 23.958 70.8206 19.62C70.8206 15.282 73.5926 11.79 77.8766 11.79C80.7206 11.79 82.7186 13.392 83.0246 14.4V2.232H88.4246V27ZM76.0946 19.62C76.0946 21.708 77.6066 23.202 79.5146 23.202C81.5126 23.202 83.0246 21.672 83.0246 19.62C83.0246 17.586 81.5126 16.02 79.5146 16.02C77.6066 16.02 76.0946 17.55 76.0946 19.62ZM94.5128 20.754C94.6208 22.374 95.9528 23.49 98.1668 23.49C100.237 23.49 101.785 22.752 102.469 22.068L104.593 25.452C103.675 26.424 101.875 27.432 97.8068 27.432C92.8928 27.432 89.3648 24.606 89.3648 19.44C89.3648 15.138 92.2988 11.79 97.3748 11.79C102.199 11.79 105.259 14.454 105.259 19.602C105.259 19.8 105.241 20.592 105.205 20.754H94.5128ZM100.111 17.91C100.057 16.74 99.2648 15.444 97.4648 15.444C95.6468 15.444 94.7108 16.632 94.6388 17.91H100.111ZM113.253 11.79C116.097 11.79 118.473 12.708 118.959 13.086L117.195 16.272C116.745 15.912 115.377 15.228 113.865 15.228C112.695 15.228 111.777 15.588 111.777 16.326C111.777 17.082 112.695 17.496 114.369 17.838C116.547 18.288 119.175 19.278 119.175 22.32C119.175 26.424 115.125 27.432 111.903 27.432C108.537 27.432 106.485 26.28 105.891 25.794L107.619 22.248C108.249 22.788 109.815 23.634 111.417 23.634C112.947 23.634 113.865 23.13 113.865 22.338C113.865 21.474 112.875 21.114 111.309 20.772C109.383 20.358 106.647 19.26 106.647 16.182C106.647 13.266 109.815 11.79 113.253 11.79ZM123.592 9.126C121.918 9.126 120.55 7.74 120.55 6.066C120.55 4.41 121.918 2.988 123.592 2.988C125.266 2.988 126.688 4.374 126.688 6.066C126.688 7.74 125.302 9.126 123.592 9.126ZM120.838 27V12.222H126.22V27H120.838ZM136.345 34.902C133.213 34.902 130.027 34.182 128.245 31.932L131.395 28.638C132.223 29.628 133.537 30.69 136.093 30.69C138.487 30.69 140.071 29.394 140.071 27.09V24.588C139.747 25.362 137.893 27.432 134.977 27.432C130.675 27.432 127.777 23.958 127.777 19.62C127.777 15.282 130.675 11.79 134.977 11.79C137.785 11.79 139.531 13.41 140.017 14.4V12.222H145.381V27.414C145.381 32.346 141.403 34.902 136.345 34.902ZM133.069 19.62C133.069 21.708 134.653 23.202 136.561 23.202C138.577 23.202 139.999 21.672 139.999 19.62C139.999 17.586 138.577 16.02 136.561 16.02C134.653 16.02 133.069 17.55 133.069 19.62ZM157.583 11.79C160.679 11.79 163.973 13.572 163.973 17.982V27H158.573V18.864C158.573 16.74 157.457 15.642 155.801 15.642C154.163 15.642 152.651 17.046 152.651 19.062V27H147.269V12.222H152.651V14.418C153.047 13.23 155.135 11.79 157.583 11.79Z" fill="white"/>
<defs>
<linearGradient id="paint0_linear_7289_7681" x1="2.05693" y1="7.52673" x2="17.3348" y2="30.5995" gradientUnits="userSpaceOnUse">
<stop stop-color="#8C52FF"/>
<stop offset="1" stop-color="#1CDAFF"/>
</linearGradient>
<linearGradient id="paint1_linear_7289_7681" x1="17.1235" y1="2.39703" x2="16.0464" y2="27.0239" gradientUnits="userSpaceOnUse">
<stop stop-color="#004AAD"/>
<stop offset="1" stop-color="#5271FF"/>
</linearGradient>
<linearGradient id="paint2_linear_7289_7681" x1="32.9058" y1="8.30081" x2="15.7716" y2="28.6717" gradientUnits="userSpaceOnUse">
<stop stop-color="#1CDAFF"/>
<stop offset="1" stop-color="#1CDAFF"/>
</linearGradient>
</defs>
</svg>
